<svg id="Layer_1" height="512" viewBox="0 0 512 512" width="512" xmlns="http://www.w3.org/2000/svg" data-name="Layer 1"><path d="m411 241h26v21h-26z" fill="#efc597"/><path d="m449.99 260h-51.77a23.458 23.458 0 0 0 -23.22 23.4v62.08a14.588 14.588 0 0 0 14.38 14.52h69.54a14.326 14.326 0 0 0 14.08-14.52v-62.08a23.279 23.279 0 0 0 -23.01-23.4z" fill="#fb6771"/><path d="m424.08 167.93a27.893 27.893 0 0 1 27.83 29.82l-.61 8.87a1.355 1.355 0 0 1 -.02.2 2.656 2.656 0 0 1 -.83 1.59l-2.22 2.08-4.12-17a10.989 10.989 0 0 0 -9.61-6.66l-2.58-.11a25.488 25.488 0 0 1 -23.5 10.57l-4.33-.46a1.081 1.081 0 0 0 -1.2.99l-.93 11.61c-.03.39-3.94-1.18-3.94-1.18a2.148 2.148 0 0 1 -1.12-1.44 1.968 1.968 0 0 1 -.06-.35l-.6-8.71c-.05-.65-.07-1.31-.07-1.95a27.907 27.907 0 0 1 27.91-27.87z" fill="#6d7486"/><path d="m304.97 63h-226.16a39.69 39.69 0 0 0 -39.81 39.69v288.31h306v-288.31a39.879 39.879 0 0 0 -40.03-39.69z" fill="#3090fc"/><path d="m344.97 390.39v46.92a12.035 12.035 0 0 1 -12 12h-31.22a12.035 12.035 0 0 1 -12-12v-46.92z" fill="#6d7486"/><path d="m191 133.3v.7 148.7h153.97v-149.4z" fill="#55d8d8"/><path d="m302.27 328.92a13.3 13.3 0 1 1 -13.3 13.3 13.3 13.3 0 0 1 13.3-13.3z" fill="#d4e1f4"/><path d="m38.81 133.3v149.4h152.19v-148.7-.7z" fill="#7ce5e9"/><path d="m94.04 390.39v46.92a12.035 12.035 0 0 1 -12 12h-31.23a12.035 12.035 0 0 1 -12-12v-46.92z" fill="#6d7486"/><path d="m81.52 328.92a13.3 13.3 0 1 1 -13.3 13.3 13.292 13.292 0 0 1 13.3-13.3z" fill="#d4e1f4"/><path d="m272.12 97.35v3.84a13.73 13.73 0 0 1 -13.69 13.69h-133.07a13.73 13.73 0 0 1 -13.69-13.69v-3.84a13.727 13.727 0 0 1 13.69-13.68h133.07a13.727 13.727 0 0 1 13.69 13.68z" fill="#55d8d8"/><path d="m116.3 282.7 5.92 25.83h138.43l.88.2 5.96-26.03z" fill="#6d7486"/><path d="m261.53 308.73-5.44 23.75h-128.39l-5.48-23.95h138.43z" fill="#4a5160"/><path d="m436.51 242.19a26.4 26.4 0 0 1 -25.14-.15 26.6 26.6 0 0 1 -5.94-4.47 26.268 26.268 0 0 1 -7.73-18.65v-.04a6.715 6.715 0 0 1 -5.55-6.61 7.008 7.008 0 0 1 .19-1.6 5.057 5.057 0 0 1 4.52-3.85l.04-.01a2.148 2.148 0 0 0 1.12 1.44s3.91 1.57 3.94 1.18l.93-11.61a1.081 1.081 0 0 1 1.2-.99l4.33.46a25.488 25.488 0 0 0 23.5-10.57l2.58.11a10.989 10.989 0 0 1 9.61 6.66l4.12 17 2.22-2.08a2.656 2.656 0 0 0 .83-1.59h.01a5.059 5.059 0 0 1 4.5 3.85 6.494 6.494 0 0 1 .2 1.6 6.71 6.71 0 0 1 -5.54 6.61v.04a26.268 26.268 0 0 1 -7.73 18.65 26.558 26.558 0 0 1 -6.21 4.62z" fill="#ffd8b7"/><path d="m108.81 63h-30a39.69 39.69 0 0 0 -39.81 39.69v288.31h30v-288.31a39.69 39.69 0 0 1 39.81-39.69z" fill="#5cb5ff"/><path d="m38.81 133.3h30v149.4h-30z" fill="#adf0e5"/><path d="m68.81 437.31v-46.92h-30v46.92a12.035 12.035 0 0 0 12 12h30a12.035 12.035 0 0 1 -12-12z" fill="#b0b5ca"/><path d="m405 345.48v-62.08a23.458 23.458 0 0 1 23.22-23.4h-30a23.458 23.458 0 0 0 -23.22 23.4v62.08a14.588 14.588 0 0 0 14.38 14.52h30a14.588 14.588 0 0 1 -14.38-14.52z" fill="#e75163"/><path d="m424 340v.73 108.29-.02h23.17l6.59-109z" fill="#4a5160"/><path d="m395.5 340-.41.02 6.59 108.98h22.32v.02-108.29-.73z" fill="#6d7486"/><path d="m431.58 260.3 3.33 41.35-10.76 16.38-10.75-16.38 3.33-41.35z" fill="#fff655"/><g fill="#fff"><path d="m63.507 161.444a6 6 0 0 1 -6-6v-3.6a6 6 0 0 1 12 0v3.6a6 6 0 0 1 -6 6z"/><path d="m63.507 261.029a6 6 0 0 1 -6-6v-79.507a6 6 0 0 1 12 0v79.507a6 6 0 0 1 -6 6z"/></g></svg>