<svg id="SvgjsSvg1001" width="288" height="288" xmlns="http://www.w3.org/2000/svg" version="1.1" xmlns:xlink="http://www.w3.org/1999/xlink" xmlns:svgjs="http://svgjs.com/svgjs"><defs id="SvgjsDefs1002"></defs><g id="SvgjsG1008" transform="matrix(0.9167,0,0,0.9167,11.979456686401363,11.731679351806633)"><svg xmlns="http://www.w3.org/2000/svg" width="288" height="288" viewBox="0 0 32 32"><path d="M20 15.341h-8v-3.341h8zM19.012 19.341c-0.546 0-0.988-0.442-0.988-0.988s0.442-0.988 0.988-0.988c0.546 0 0.988 0.442 0.988 0.988v0c-0.004 0.544-0.444 0.984-0.988 0.988h-0zM12.989 19.341c-0.546 0-0.988-0.442-0.988-0.988s0.442-0.988 0.988-0.988c0.546 0 0.988 0.442 0.988 0.988v0c0 0.007 0 0.015 0 0.023 0 0.533-0.432 0.965-0.965 0.965-0.009 0-0.017-0-0.026-0l0.001 0zM10.682 18.682c0.010 0.578 0.262 1.096 0.658 1.458l0.002 0.001v1.176c-0 0.006-0 0.013-0 0.020 0 0.353 0.287 0.64 0.64 0.64 0.007 0 0.014-0 0.021-0l-0.001 0h0.659c0.006 0 0.013 0 0.020 0 0.353 0 0.64-0.287 0.64-0.64 0-0.007-0-0.014-0-0.020l0 0.001v-0.659h5.318v0.659c-0 0.006-0 0.013-0 0.020 0 0.353 0.287 0.64 0.64 0.64 0.007 0 0.014-0 0.020-0l-0.001 0h0.659c0.006 0 0.013 0 0.020 0 0.353 0 0.64-0.287 0.64-0.64 0-0.007-0-0.014-0-0.020l0 0.001v-1.177c0.405-0.356 0.659-0.874 0.659-1.452 0-0.002 0-0.005 0-0.007v0-6.682c0-2.353-2.4-2.682-5.318-2.682s-5.274 0.33-5.274 2.682z" fill="#fa931e" class="color000 svgShape"></path></svg></g></svg>