<svg id="SvgjsSvg1011" width="288" height="288" xmlns="http://www.w3.org/2000/svg" version="1.1" xmlns:xlink="http://www.w3.org/1999/xlink" xmlns:svgjs="http://svgjs.com/svgjs"><defs id="SvgjsDefs1012"></defs><g id="SvgjsG1013"><svg xmlns="http://www.w3.org/2000/svg" width="288" height="288" viewBox="0 0 32 32"><path d="M23.76 8.112c-0.063-0.068-0.153-0.11-0.253-0.11-0.056 0-0.11 0.014-0.157 0.038l0.002-0.001-18.33 8.41c-0.133 0.069-0.222 0.205-0.222 0.361 0 0.003 0 0.005 0 0.008v-0c0.021 0.162 0.139 0.292 0.292 0.331l0.003 0.001 8.225 1.364 0.92 7.746c0.034 0.156 0.146 0.28 0.292 0.331l0.003 0.001h0.074c0.001 0 0.002 0 0.003 0 0.148 0 0.275-0.091 0.328-0.219l0.001-0.002 8.854-17.851c0.025-0.051 0.039-0.11 0.039-0.173 0-0.087-0.028-0.168-0.075-0.234l0.001 0.001z" fill="#dc1861" class="color000 svgShape"></path></svg></g></svg>