<?xml version="1.0" standalone="no"?>
<!DOCTYPE svg PUBLIC "-//W3C//DTD SVG 20010904//EN"
 "http://www.w3.org/TR/2001/REC-SVG-20010904/DTD/svg10.dtd">
<svg version="1.0" xmlns="http://www.w3.org/2000/svg"
 width="32.000000pt" height="32.000000pt" viewBox="0 0 32.000000 32.000000"
 preserveAspectRatio="xMidYMid meet">

<g transform="translate(0.000000,32.000000) scale(0.100000,-0.100000)"
fill="#dc1861" stroke="none">
<path d="M120 231 c-13 -25 -13 -68 0 -76 6 -4 8 -11 5 -16 -4 -5 12 -9 35 -9
23 0 39 4 35 9 -3 5 -1 12 5 16 14 9 13 68 -2 83 -19 19 -66 15 -78 -7z m70
-26 c0 -10 -10 -15 -30 -15 -20 0 -30 5 -30 15 0 10 10 15 30 15 20 0 30 -5
30 -15z"/>
</g>
</svg>
